<svg xmlns="http://www.w3.org/2000/svg" xmlns:xlink="http://www.w3.org/1999/xlink" width="500" zoomAndPan="magnify" viewBox="0 0 375 225" height="300" preserveAspectRatio="xMidYMid meet" version="1.0"><defs><g/></defs><g fill="#000000" fill-opacity="1"><g transform="translate(0, 138.51802)"><g><path d="M 2.09375 -48.078125 C 5.125 -49.660156 8.28125 -51 11.5625 -52.09375 C 14.84375 -53.1875 18.125 -54.15625 21.40625 -55 L 23.5 -55.546875 C 25.375 -55.910156 27.253906 -56.257812 29.140625 -56.59375 C 31.023438 -56.925781 32.9375 -57.15625 34.875 -57.28125 C 35.300781 -57.34375 35.710938 -57.375 36.109375 -57.375 C 36.503906 -57.375 36.910156 -57.375 37.328125 -57.375 C 35.566406 -56.945312 33.773438 -56.503906 31.953125 -56.046875 C 30.140625 -55.585938 28.351562 -55.148438 26.59375 -54.734375 C 23.5 -54.066406 20.414062 -53.351562 17.34375 -52.59375 C 14.28125 -51.832031 11.234375 -50.9375 8.203125 -49.90625 C 7.160156 -49.601562 6.140625 -49.253906 5.140625 -48.859375 C 4.140625 -48.460938 3.125 -48.019531 2.09375 -47.53125 C 1.851562 -47.65625 1.851562 -47.835938 2.09375 -48.078125 Z M 53.1875 -11.015625 C 53.0625 -10.472656 52.753906 -10.171875 52.265625 -10.109375 C 48.929688 -9.503906 45.578125 -8.757812 42.203125 -7.875 C 38.835938 -7 35.546875 -5.984375 32.328125 -4.828125 C 30.804688 -4.273438 29.269531 -3.726562 27.71875 -3.1875 C 26.175781 -2.644531 24.644531 -2.035156 23.125 -1.359375 L 23.03125 -1.359375 C 22.976562 -1.304688 22.890625 -1.265625 22.765625 -1.234375 C 22.640625 -1.203125 22.519531 -1.15625 22.40625 -1.09375 C 21.914062 -0.851562 21.410156 -0.640625 20.890625 -0.453125 C 20.378906 -0.273438 19.878906 -0.0625 19.390625 0.1875 L 19.3125 0.265625 C 18.945312 0.515625 18.257812 0.820312 17.25 1.1875 C 16.25 1.550781 15.304688 1.851562 14.421875 2.09375 C 13.546875 2.332031 13.109375 2.453125 13.109375 2.453125 C 13.109375 2.453125 13 2.46875 12.78125 2.5 C 12.570312 2.53125 12.378906 2.546875 12.203125 2.546875 C 11.472656 2.671875 10.742188 2.671875 10.015625 2.546875 C 9.285156 2.429688 8.738281 1.976562 8.375 1.1875 C 8.195312 0.820312 8.164062 0.394531 8.28125 -0.09375 C 7.132812 -0.570312 6.238281 -1.40625 5.59375 -2.59375 C 4.957031 -3.78125 4.851562 -4.945312 5.28125 -6.09375 C 5.039062 -7.675781 4.84375 -9.269531 4.6875 -10.875 C 4.539062 -12.488281 4.40625 -14.082031 4.28125 -15.65625 L 3.1875 -26.59375 L 2.09375 -36.96875 C 0.9375 -38.25 0.453125 -39.738281 0.640625 -41.4375 C 0.816406 -43.132812 1.570312 -44.5625 2.90625 -45.71875 C 2.96875 -45.832031 3.03125 -45.953125 3.09375 -46.078125 C 3.15625 -46.203125 3.21875 -46.320312 3.28125 -46.4375 C 4.25 -46.863281 5.21875 -47.257812 6.1875 -47.625 C 7.164062 -47.988281 8.140625 -48.320312 9.109375 -48.625 C 12.140625 -49.65625 15.1875 -50.550781 18.25 -51.3125 C 21.320312 -52.070312 24.40625 -52.753906 27.5 -53.359375 C 29.925781 -53.910156 32.320312 -54.503906 34.6875 -55.140625 C 37.0625 -55.773438 39.429688 -56.394531 41.796875 -57 C 42.097656 -56.945312 42.414062 -56.90625 42.75 -56.875 C 43.082031 -56.84375 43.375 -56.765625 43.625 -56.640625 L 45.078125 -56.09375 C 45.316406 -55.914062 45.554688 -55.71875 45.796875 -55.5 C 46.046875 -55.289062 46.289062 -55.09375 46.53125 -54.90625 C 46.832031 -53.9375 47.046875 -52.976562 47.171875 -52.03125 C 47.296875 -51.09375 47.265625 -50.171875 47.078125 -49.265625 L 42.53125 -47.90625 C 41.550781 -47.59375 40.53125 -47.285156 39.46875 -46.984375 C 38.40625 -46.679688 37.359375 -46.378906 36.328125 -46.078125 C 36.085938 -45.953125 35.90625 -45.890625 35.78125 -45.890625 C 34.632812 -45.585938 33.285156 -45.207031 31.734375 -44.75 C 30.179688 -44.300781 28.628906 -43.847656 27.078125 -43.390625 C 25.535156 -42.929688 24.21875 -42.519531 23.125 -42.15625 C 22.03125 -41.789062 21.363281 -41.550781 21.125 -41.4375 C 19.664062 -40.945312 18.207031 -40.425781 16.75 -39.875 C 15.289062 -39.332031 13.863281 -38.757812 12.46875 -38.15625 L 12.296875 -37.96875 C 12.359375 -37.664062 12.429688 -37.164062 12.515625 -36.46875 C 12.609375 -35.769531 12.703125 -35.117188 12.796875 -34.515625 C 12.890625 -33.910156 12.9375 -33.515625 12.9375 -33.328125 C 15.476562 -34.421875 18.007812 -35.5 20.53125 -36.5625 C 23.050781 -37.625 25.617188 -38.640625 28.234375 -39.609375 C 29.691406 -39.972656 31.160156 -40.351562 32.640625 -40.75 C 34.128906 -41.144531 35.601562 -41.554688 37.0625 -41.984375 L 38.25 -42.25 C 38.789062 -42.375 39.316406 -42.453125 39.828125 -42.484375 C 40.347656 -42.515625 40.882812 -42.5625 41.4375 -42.625 C 42.582031 -42.675781 43.671875 -42.597656 44.703125 -42.390625 C 45.742188 -42.179688 46.566406 -41.53125 47.171875 -40.4375 C 47.296875 -40.3125 47.367188 -40.1875 47.390625 -40.0625 C 47.421875 -39.945312 47.46875 -39.828125 47.53125 -39.703125 C 47.65625 -39.523438 47.75 -39.34375 47.8125 -39.15625 C 47.875 -38.976562 47.929688 -38.796875 47.984375 -38.609375 C 48.046875 -38.546875 48.109375 -38.515625 48.171875 -38.515625 C 49.023438 -38.085938 49.539062 -37.332031 49.71875 -36.25 C 49.90625 -35.394531 49.769531 -34.523438 49.3125 -33.640625 C 48.851562 -32.765625 48.203125 -32.113281 47.359375 -31.6875 C 46.378906 -31.257812 45.390625 -31 44.390625 -30.90625 C 43.390625 -30.820312 42.375 -30.660156 41.34375 -30.421875 C 40.25 -30.234375 39.140625 -30.03125 38.015625 -29.8125 C 36.890625 -29.601562 35.78125 -29.347656 34.6875 -29.046875 C 32.507812 -28.441406 30.34375 -27.789062 28.1875 -27.09375 C 26.03125 -26.394531 23.890625 -25.585938 21.765625 -24.671875 C 20.429688 -24.128906 19.140625 -23.550781 17.890625 -22.9375 C 16.648438 -22.332031 15.390625 -21.695312 14.109375 -21.03125 L 14.65625 -15.109375 C 14.65625 -15.054688 14.65625 -15.015625 14.65625 -14.984375 C 14.65625 -14.953125 14.65625 -14.875 14.65625 -14.75 L 14.9375 -14.9375 C 15.96875 -15.414062 16.984375 -15.851562 17.984375 -16.25 C 18.984375 -16.644531 19.96875 -17.054688 20.9375 -17.484375 L 28.6875 -20.484375 C 29.351562 -20.785156 30.035156 -21.054688 30.734375 -21.296875 C 31.429688 -21.546875 32.113281 -21.789062 32.78125 -22.03125 C 33.875 -22.457031 34.96875 -22.867188 36.0625 -23.265625 C 37.15625 -23.660156 38.25 -24.039062 39.34375 -24.40625 L 42.890625 -25.5 C 43.378906 -25.613281 43.863281 -25.773438 44.34375 -25.984375 C 44.832031 -26.203125 45.316406 -26.375 45.796875 -26.5 C 47.554688 -26.863281 49 -26.710938 50.125 -26.046875 C 51.25 -25.378906 52.144531 -24.40625 52.8125 -23.125 C 53.476562 -21.851562 53.976562 -20.457031 54.3125 -18.9375 C 54.644531 -17.425781 54.84375 -16.03125 54.90625 -14.75 C 54.96875 -13.957031 54.832031 -13.242188 54.5 -12.609375 C 54.164062 -11.972656 53.726562 -11.441406 53.1875 -11.015625 Z M 31.140625 -30.328125 C 29.742188 -29.898438 28.332031 -29.472656 26.90625 -29.046875 C 25.476562 -28.617188 24.066406 -28.164062 22.671875 -27.6875 C 21.765625 -27.4375 20.867188 -27.175781 19.984375 -26.90625 C 19.109375 -26.632812 18.242188 -26.378906 17.390625 -26.140625 C 17.210938 -25.109375 16.726562 -24.253906 15.9375 -23.578125 C 18.1875 -24.734375 20.476562 -25.765625 22.8125 -26.671875 C 25.144531 -27.585938 27.4375 -28.5 29.6875 -29.40625 C 30.175781 -29.65625 30.691406 -29.867188 31.234375 -30.046875 Z M 11.015625 1.1875 C 11.679688 1.25 12.4375 1.265625 13.28125 1.234375 C 14.132812 1.203125 14.625 1.15625 14.75 1.09375 C 14.875 1.09375 14.96875 1.0625 15.03125 1 C 15.394531 0.820312 15.757812 0.640625 16.125 0.453125 C 16.488281 0.273438 16.820312 0.09375 17.125 -0.09375 C 17.851562 -0.457031 18.566406 -0.820312 19.265625 -1.1875 C 19.960938 -1.550781 20.644531 -1.914062 21.3125 -2.28125 L 21.3125 -2.453125 C 20.519531 -2.148438 19.695312 -1.847656 18.84375 -1.546875 C 18 -1.242188 17.148438 -0.941406 16.296875 -0.640625 C 15.453125 -0.335938 14.585938 -0.0195312 13.703125 0.3125 C 12.828125 0.644531 11.929688 0.9375 11.015625 1.1875 Z M 11.015625 1.1875 "/></g></g></g><g fill="#000000" fill-opacity="1"><g transform="translate(56.459082, 138.51802)"><g><path d="M 43.890625 -34.515625 C 45.410156 -32.203125 46.125 -29.5 46.03125 -26.40625 C 45.9375 -23.3125 45.554688 -20.488281 44.890625 -17.9375 C 44.285156 -15.632812 43.40625 -13.359375 42.25 -11.109375 C 41.09375 -8.859375 39.546875 -6.976562 37.609375 -5.46875 C 34.515625 -2.976562 30.882812 -1.320312 26.71875 -0.5 C 22.5625 0.320312 18.570312 -0.0234375 14.75 -1.546875 C 11.050781 -3.066406 7.816406 -5.390625 5.046875 -8.515625 C 2.285156 -11.640625 0.484375 -15.207031 -0.359375 -19.21875 C -0.546875 -20.1875 -0.695312 -21.171875 -0.8125 -22.171875 C -0.9375 -23.171875 -1 -24.160156 -1 -25.140625 C -0.9375 -28.472656 -0.515625 -31.734375 0.265625 -34.921875 C 1.054688 -38.109375 2.484375 -41.007812 4.546875 -43.625 C 5.941406 -45.4375 7.566406 -47.285156 9.421875 -49.171875 C 11.273438 -51.054688 13.144531 -52.664062 15.03125 -54 C 16.789062 -55.269531 18.609375 -56.453125 20.484375 -57.546875 C 21.398438 -58.097656 22.40625 -58.523438 23.5 -58.828125 C 24.59375 -59.128906 25.679688 -59.21875 26.765625 -59.09375 C 27.742188 -59.039062 28.503906 -58.707031 29.046875 -58.09375 C 29.597656 -57.488281 29.875 -56.789062 29.875 -56 C 30.175781 -55.457031 30.328125 -54.894531 30.328125 -54.3125 C 30.328125 -53.738281 30.296875 -53.117188 30.234375 -52.453125 C 30.171875 -52.085938 30.140625 -51.328125 30.140625 -50.171875 C 30.140625 -49.015625 30.140625 -47.707031 30.140625 -46.25 C 30.140625 -44.800781 30.15625 -43.421875 30.1875 -42.109375 C 30.21875 -40.804688 30.234375 -39.789062 30.234375 -39.0625 L 30.5 -30.421875 C 30.5 -29.628906 30.515625 -28.851562 30.546875 -28.09375 C 30.578125 -27.332031 30.625 -26.585938 30.6875 -25.859375 C 30.6875 -25.253906 30.703125 -24.628906 30.734375 -23.984375 C 30.765625 -23.347656 30.71875 -22.726562 30.59375 -22.125 C 30.53125 -21.882812 30.363281 -21.703125 30.09375 -21.578125 C 29.820312 -21.460938 29.566406 -21.460938 29.328125 -21.578125 C 29.015625 -21.828125 28.832031 -21.976562 28.78125 -22.03125 C 28.65625 -21.976562 28.53125 -21.960938 28.40625 -21.984375 C 28.289062 -22.015625 28.171875 -22.03125 28.046875 -22.03125 C 27.441406 -22.21875 26.941406 -22.519531 26.546875 -22.9375 C 26.148438 -23.363281 25.800781 -23.851562 25.5 -24.40625 C 25.3125 -24.707031 25.171875 -25.007812 25.078125 -25.3125 C 24.992188 -25.613281 24.890625 -25.890625 24.765625 -26.140625 L 24.5 -26.140625 L 24.5 -25.859375 C 24.800781 -24.828125 25.285156 -23.75 25.953125 -22.625 C 26.617188 -21.5 27.617188 -21.0625 28.953125 -21.3125 C 29.617188 -21.425781 30.085938 -21.269531 30.359375 -20.84375 C 30.640625 -20.425781 30.703125 -19.972656 30.546875 -19.484375 C 30.398438 -19.003906 29.992188 -18.734375 29.328125 -18.671875 C 28.171875 -18.546875 27.03125 -18.816406 25.90625 -19.484375 C 24.78125 -20.148438 23.976562 -21.03125 23.5 -22.125 C 22.882812 -23.519531 22.53125 -24.960938 22.4375 -26.453125 C 22.351562 -27.941406 22.28125 -29.414062 22.21875 -30.875 L 21.671875 -48.4375 C 21.492188 -48.320312 21.3125 -48.1875 21.125 -48.03125 C 20.945312 -47.882812 20.734375 -47.75 20.484375 -47.625 C 17.390625 -45.257812 14.960938 -42.523438 13.203125 -39.421875 C 11.441406 -36.328125 10.195312 -32.835938 9.46875 -28.953125 C 9.40625 -28.585938 9.359375 -28.359375 9.328125 -28.265625 C 9.296875 -28.179688 9.28125 -27.988281 9.28125 -27.6875 C 9.226562 -27.4375 9.203125 -27.191406 9.203125 -26.953125 C 9.203125 -26.710938 9.203125 -26.46875 9.203125 -26.21875 C 9.140625 -25.132812 9.195312 -24.070312 9.375 -23.03125 C 9.5625 -22 9.804688 -20.96875 10.109375 -19.9375 C 10.960938 -17.269531 12.238281 -14.84375 13.9375 -12.65625 C 15.632812 -10.46875 17.96875 -9.285156 20.9375 -9.109375 C 21.125 -9.109375 21.320312 -9.09375 21.53125 -9.0625 C 21.75 -9.03125 21.945312 -9.015625 22.125 -9.015625 C 25.644531 -9.140625 28.648438 -10.289062 31.140625 -12.46875 C 32.171875 -13.445312 32.960938 -14.453125 33.515625 -15.484375 C 34.359375 -16.941406 34.898438 -18.503906 35.140625 -20.171875 C 35.390625 -21.835938 35.484375 -23.460938 35.421875 -25.046875 C 35.359375 -25.773438 35.296875 -26.488281 35.234375 -27.1875 C 35.179688 -27.882812 35 -28.535156 34.6875 -29.140625 C 34.082031 -30.472656 33.914062 -31.820312 34.1875 -33.1875 C 34.46875 -34.550781 35.273438 -35.628906 36.609375 -36.421875 C 37.878906 -37.210938 39.210938 -37.394531 40.609375 -36.96875 C 42.003906 -36.539062 43.097656 -35.722656 43.890625 -34.515625 Z M 23.5 -49.71875 C 23.070312 -49.351562 22.582031 -49.019531 22.03125 -48.71875 C 22.15625 -47.195312 22.304688 -45.675781 22.484375 -44.15625 C 22.671875 -42.644531 22.828125 -41.128906 22.953125 -39.609375 L 23.40625 -39.609375 C 23.34375 -41.304688 23.3125 -42.988281 23.3125 -44.65625 C 23.3125 -46.332031 23.375 -48.019531 23.5 -49.71875 Z M 34.609375 -29.328125 C 34.609375 -29.378906 34.59375 -29.40625 34.5625 -29.40625 C 34.53125 -29.40625 34.515625 -29.4375 34.515625 -29.5 C 34.515625 -29.5 34.53125 -29.484375 34.5625 -29.453125 C 34.59375 -29.421875 34.609375 -29.378906 34.609375 -29.328125 Z M 34.6875 -29.140625 C 34.632812 -29.203125 34.609375 -29.265625 34.609375 -29.328125 C 34.609375 -29.265625 34.617188 -29.234375 34.640625 -29.234375 C 34.671875 -29.234375 34.6875 -29.203125 34.6875 -29.140625 Z M 34.6875 -29.140625 "/></g></g></g><g fill="#000000" fill-opacity="1"><g transform="translate(103.811872, 138.51802)"><g><path d="M 34.421875 -39.0625 C 34.910156 -36.269531 35.210938 -33.445312 35.328125 -30.59375 C 35.453125 -27.738281 35.363281 -24.882812 35.0625 -22.03125 C 34.8125 -19.539062 34.414062 -16.972656 33.875 -14.328125 C 33.332031 -11.691406 32.300781 -9.3125 30.78125 -7.1875 C 30.289062 -6.519531 29.769531 -5.867188 29.21875 -5.234375 C 28.675781 -4.597656 28.070312 -4.003906 27.40625 -3.453125 C 26.5625 -2.609375 25.609375 -1.894531 24.546875 -1.3125 C 23.484375 -0.738281 22.3125 -0.363281 21.03125 -0.1875 C 20.0625 -0.125 19.0625 -0.125 18.03125 -0.1875 C 16.507812 0.0625 14.957031 -0.0546875 13.375 -0.546875 C 11.800781 -1.035156 10.410156 -1.765625 9.203125 -2.734375 C 7.078125 -4.554688 5.492188 -6.753906 4.453125 -9.328125 C 3.421875 -11.910156 2.664062 -14.535156 2.1875 -17.203125 C 1.269531 -23.035156 1.265625 -28.863281 2.171875 -34.6875 C 3.085938 -40.519531 5.066406 -45.988281 8.109375 -51.09375 C 8.109375 -51.09375 8.164062 -51.148438 8.28125 -51.265625 C 9.195312 -53.691406 10.410156 -55.878906 11.921875 -57.828125 C 11.984375 -57.941406 12.046875 -57.984375 12.109375 -57.953125 C 12.171875 -57.929688 12.171875 -57.859375 12.109375 -57.734375 C 11.867188 -57.304688 11.609375 -56.863281 11.328125 -56.40625 C 11.054688 -55.957031 10.832031 -55.488281 10.65625 -55 C 10.414062 -54.507812 10.203125 -54.003906 10.015625 -53.484375 C 9.835938 -52.972656 9.65625 -52.476562 9.46875 -52 C 9.59375 -52.0625 9.726562 -52.078125 9.875 -52.046875 C 10.03125 -52.015625 10.140625 -52 10.203125 -52 C 10.992188 -53.695312 11.929688 -55.179688 13.015625 -56.453125 C 14.109375 -57.734375 15.382812 -58.523438 16.84375 -58.828125 C 17.445312 -59.066406 18.035156 -59.257812 18.609375 -59.40625 C 19.191406 -59.5625 19.785156 -59.613281 20.390625 -59.5625 C 21.066406 -59.675781 21.753906 -59.71875 22.453125 -59.6875 C 23.148438 -59.65625 23.769531 -59.488281 24.3125 -59.1875 C 24.914062 -58.820312 25.445312 -58.304688 25.90625 -57.640625 C 26.363281 -56.972656 26.742188 -56.335938 27.046875 -55.734375 C 27.410156 -55.847656 27.789062 -55.859375 28.1875 -55.765625 C 28.582031 -55.679688 28.898438 -55.425781 29.140625 -55 C 29.804688 -53.789062 30.441406 -52.546875 31.046875 -51.265625 C 31.660156 -49.992188 32.175781 -48.691406 32.59375 -47.359375 C 33.019531 -46.015625 33.367188 -44.644531 33.640625 -43.25 C 33.921875 -41.851562 34.179688 -40.457031 34.421875 -39.0625 Z M 23.03125 -12.5625 C 23.820312 -14.6875 24.367188 -16.875 24.671875 -19.125 C 24.984375 -21.375 25.140625 -23.617188 25.140625 -25.859375 C 24.953125 -28.171875 24.765625 -30.460938 24.578125 -32.734375 C 24.398438 -35.015625 24.128906 -37.273438 23.765625 -39.515625 C 23.640625 -40.179688 23.515625 -40.863281 23.390625 -41.5625 C 23.273438 -42.269531 23.15625 -42.925781 23.03125 -43.53125 C 22.789062 -44.375 22.519531 -45.191406 22.21875 -45.984375 C 21.914062 -46.773438 21.613281 -47.566406 21.3125 -48.359375 C 21.1875 -48.660156 21.046875 -48.992188 20.890625 -49.359375 C 20.742188 -49.722656 20.578125 -50.054688 20.390625 -50.359375 C 20.273438 -50.484375 20.15625 -50.546875 20.03125 -50.546875 L 19.578125 -50.546875 C 19.335938 -50.054688 19.109375 -49.535156 18.890625 -48.984375 C 18.679688 -48.441406 18.515625 -47.925781 18.390625 -47.4375 C 17.910156 -45.800781 17.472656 -44.144531 17.078125 -42.46875 C 16.679688 -40.800781 16.363281 -39.085938 16.125 -37.328125 C 15.695312 -33.992188 15.507812 -30.597656 15.5625 -27.140625 C 15.625 -23.679688 15.929688 -20.25 16.484375 -16.84375 C 16.660156 -15.8125 16.539062 -14.898438 16.125 -14.109375 C 14.84375 -20.054688 14.335938 -26.203125 14.609375 -32.546875 C 14.890625 -38.898438 16.332031 -44.804688 18.9375 -50.265625 C 18.695312 -50.085938 18.46875 -49.828125 18.25 -49.484375 C 18.039062 -49.148438 17.847656 -48.832031 17.671875 -48.53125 C 16.816406 -46.832031 16.082031 -45.070312 15.46875 -43.25 C 14.863281 -41.425781 14.382812 -39.578125 14.03125 -37.703125 C 13.90625 -37.453125 13.84375 -37.328125 13.84375 -37.328125 C 13.65625 -36.296875 13.515625 -35.25 13.421875 -34.1875 C 13.335938 -33.125 13.234375 -32.078125 13.109375 -31.046875 C 12.992188 -27.953125 13.101562 -24.867188 13.4375 -21.796875 C 13.769531 -18.734375 14.269531 -15.71875 14.9375 -12.75 C 14.632812 -12.507812 14.300781 -12.359375 13.9375 -12.296875 C 12.84375 -12.046875 11.78125 -12.226562 10.75 -12.84375 C 11.226562 -11.875 11.894531 -10.867188 12.75 -9.828125 C 13.601562 -8.796875 14.585938 -8.019531 15.703125 -7.5 C 16.828125 -6.988281 18.03125 -6.914062 19.3125 -7.28125 C 20.34375 -7.644531 21.160156 -8.375 21.765625 -9.46875 C 22.066406 -9.957031 22.320312 -10.457031 22.53125 -10.96875 C 22.75 -11.488281 22.914062 -12.019531 23.03125 -12.5625 Z M 23.03125 -12.5625 "/></g></g></g><g fill="#000000" fill-opacity="1"><g transform="translate(142.058368, 138.51802)"><g><path d="M 55.734375 -9.28125 C 55.847656 -8.007812 55.828125 -6.734375 55.671875 -5.453125 C 55.523438 -4.179688 55.117188 -2.972656 54.453125 -1.828125 C 53.785156 -0.671875 52.738281 0.160156 51.3125 0.671875 C 49.882812 1.191406 48.59375 0.878906 47.4375 -0.265625 C 46.40625 -0.515625 45.523438 -1.046875 44.796875 -1.859375 C 44.066406 -2.679688 43.703125 -3.640625 43.703125 -4.734375 C 43.523438 -12.503906 42.460938 -20.242188 40.515625 -27.953125 C 40.097656 -29.898438 39.675781 -31.828125 39.25 -33.734375 C 38.820312 -35.648438 38.394531 -37.550781 37.96875 -39.4375 C 36.875 -36.269531 35.8125 -32.878906 34.78125 -29.265625 C 33.75 -25.660156 32.898438 -22.582031 32.234375 -20.03125 C 31.628906 -17.539062 31.035156 -14.988281 30.453125 -12.375 C 29.878906 -9.769531 29.410156 -7.5 29.046875 -5.5625 C 28.984375 -5.375 28.90625 -5.296875 28.8125 -5.328125 C 28.726562 -5.359375 28.6875 -5.40625 28.6875 -5.46875 C 28.625 -5.039062 28.53125 -4.613281 28.40625 -4.1875 C 28.289062 -3.757812 28.171875 -3.304688 28.046875 -2.828125 C 27.804688 -2.210938 27.519531 -1.660156 27.1875 -1.171875 C 26.851562 -0.691406 26.320312 -0.363281 25.59375 -0.1875 C 25.039062 -0.0625 24.644531 -0.0859375 24.40625 -0.265625 C 23.851562 -0.265625 23.425781 -0.390625 23.125 -0.640625 C 22.757812 -0.390625 22.488281 -0.476562 22.3125 -0.90625 C 21.882812 -1.570312 21.5625 -2.238281 21.34375 -2.90625 C 21.132812 -3.582031 20.941406 -4.285156 20.765625 -5.015625 L 16.84375 -18.9375 C 16.414062 -20.457031 16.003906 -21.972656 15.609375 -23.484375 C 15.222656 -25.003906 14.847656 -26.523438 14.484375 -28.046875 C 14.359375 -28.410156 14.234375 -28.773438 14.109375 -29.140625 C 13.992188 -29.503906 13.875 -29.898438 13.75 -30.328125 C 13.9375 -26.503906 14.101562 -22.617188 14.25 -18.671875 C 14.40625 -14.722656 14.507812 -10.835938 14.5625 -7.015625 C 14.625 -5.679688 14.578125 -4.300781 14.421875 -2.875 C 14.273438 -1.445312 13.472656 -0.398438 12.015625 0.265625 C 11.347656 0.578125 10.832031 0.519531 10.46875 0.09375 C 10.351562 -0.03125 10.265625 -0.148438 10.203125 -0.265625 C 8.921875 0.148438 7.859375 -0.0625 7.015625 -0.90625 C 6.222656 -1.757812 5.703125 -2.789062 5.453125 -4 C 5.210938 -5.21875 5.035156 -6.375 4.921875 -7.46875 C 4.554688 -10.132812 4.28125 -12.757812 4.09375 -15.34375 C 3.914062 -17.925781 3.796875 -20.519531 3.734375 -23.125 C 3.546875 -28.53125 3.453125 -33.9375 3.453125 -39.34375 C 3.398438 -41.945312 3.359375 -44.582031 3.328125 -47.25 C 3.296875 -49.925781 3.519531 -52.570312 4 -55.1875 C 4.0625 -55.425781 4.242188 -55.546875 4.546875 -55.546875 C 4.859375 -55.546875 5.039062 -55.425781 5.09375 -55.1875 C 5.40625 -53.363281 5.585938 -51.429688 5.640625 -49.390625 C 5.703125 -47.359375 5.765625 -45.375 5.828125 -43.4375 C 5.953125 -43.4375 6.039062 -43.101562 6.09375 -42.4375 C 6.15625 -41.769531 6.21875 -41.4375 6.28125 -41.4375 L 6.28125 -43.53125 C 6.28125 -44.625 6.265625 -45.703125 6.234375 -46.765625 C 6.203125 -47.828125 6.1875 -48.90625 6.1875 -50 C 6.125 -50.90625 6.109375 -51.84375 6.140625 -52.8125 C 6.171875 -53.78125 6.398438 -54.691406 6.828125 -55.546875 C 6.828125 -56.578125 7.34375 -57.394531 8.375 -58 C 9.832031 -58.914062 11.351562 -59.128906 12.9375 -58.640625 C 14.75 -58.273438 15.992188 -57.210938 16.671875 -55.453125 C 17.210938 -54.785156 17.546875 -53.96875 17.671875 -53 C 17.785156 -51.90625 17.929688 -50.796875 18.109375 -49.671875 C 18.296875 -48.546875 18.484375 -47.410156 18.671875 -46.265625 C 19.460938 -41.585938 20.34375 -36.695312 21.3125 -31.59375 C 22.28125 -26.5 23.28125 -21.644531 24.3125 -17.03125 C 24.914062 -19.582031 25.488281 -22.128906 26.03125 -24.671875 C 26.582031 -27.222656 27.164062 -29.773438 27.78125 -32.328125 C 28.625 -36.273438 29.5 -40.207031 30.40625 -44.125 C 31.320312 -48.039062 32.050781 -51.96875 32.59375 -55.90625 C 32.71875 -56.394531 32.992188 -56.835938 33.421875 -57.234375 C 33.847656 -57.628906 34.300781 -57.859375 34.78125 -57.921875 C 36.300781 -58.335938 37.640625 -58.210938 38.796875 -57.546875 C 39.460938 -58.035156 40.21875 -58.28125 41.0625 -58.28125 C 41.914062 -58.28125 42.613281 -57.976562 43.15625 -57.375 C 44.5625 -55.976562 45.6875 -54.398438 46.53125 -52.640625 C 47.382812 -50.878906 48.019531 -49.054688 48.4375 -47.171875 C 48.925781 -45.109375 49.367188 -43.054688 49.765625 -41.015625 C 50.160156 -38.984375 50.539062 -36.9375 50.90625 -34.875 C 51.03125 -34.082031 51.164062 -33.289062 51.3125 -32.5 C 51.46875 -31.71875 51.570312 -30.929688 51.625 -30.140625 C 51.8125 -29.472656 51.976562 -28.804688 52.125 -28.140625 C 52.28125 -27.472656 52.421875 -26.804688 52.546875 -26.140625 C 52.847656 -24.617188 53.132812 -23.128906 53.40625 -21.671875 C 53.675781 -20.210938 53.960938 -18.722656 54.265625 -17.203125 C 54.578125 -15.867188 54.867188 -14.550781 55.140625 -13.25 C 55.410156 -11.945312 55.609375 -10.625 55.734375 -9.28125 Z M 17.9375 -34.0625 C 18.125 -33.632812 18.273438 -33.253906 18.390625 -32.921875 C 18.515625 -32.585938 18.695312 -32.269531 18.9375 -31.96875 C 18.507812 -34.269531 18.023438 -36.921875 17.484375 -39.921875 C 16.941406 -42.929688 16.457031 -45.59375 16.03125 -47.90625 C 15.96875 -48.570312 15.875 -49.253906 15.75 -49.953125 C 15.632812 -50.648438 15.484375 -51.363281 15.296875 -52.09375 C 14.929688 -51.84375 14.507812 -51.660156 14.03125 -51.546875 C 14.03125 -51.421875 14 -51.296875 13.9375 -51.171875 C 14.601562 -48.378906 15.253906 -45.617188 15.890625 -42.890625 C 16.523438 -40.160156 17.144531 -37.367188 17.75 -34.515625 C 17.875 -34.390625 17.9375 -34.238281 17.9375 -34.0625 Z M 31.78125 -20.21875 C 32.632812 -23.675781 33.546875 -27.132812 34.515625 -30.59375 C 35.484375 -34.050781 36.546875 -37.484375 37.703125 -40.890625 C 37.640625 -41.191406 37.578125 -41.492188 37.515625 -41.796875 C 37.453125 -42.097656 37.363281 -42.398438 37.25 -42.703125 C 36.269531 -39.734375 35.351562 -36.710938 34.5 -33.640625 C 33.65625 -30.578125 32.867188 -27.5 32.140625 -24.40625 C 32.078125 -23.738281 31.96875 -23.054688 31.8125 -22.359375 C 31.664062 -21.660156 31.535156 -20.976562 31.421875 -20.3125 C 31.472656 -20.25 31.5625 -20.21875 31.6875 -20.21875 Z M 31.78125 -20.21875 "/></g></g></g><g fill="#000000" fill-opacity="1"><g transform="translate(194.874944, 138.51802)"><g><path d="M 52 -53.640625 C 51.875 -53.273438 51.75 -52.96875 51.625 -52.71875 C 51.570312 -51.9375 51.421875 -51.148438 51.171875 -50.359375 C 50.929688 -49.566406 50.445312 -48.925781 49.71875 -48.4375 C 49.414062 -48.195312 48.960938 -48.019531 48.359375 -47.90625 C 48.109375 -47.65625 47.894531 -47.53125 47.71875 -47.53125 C 45.40625 -47.101562 43.09375 -46.675781 40.78125 -46.25 C 38.476562 -45.832031 36.175781 -45.472656 33.875 -45.171875 C 33.875 -43.160156 33.859375 -41.15625 33.828125 -39.15625 C 33.796875 -37.15625 33.78125 -35.148438 33.78125 -33.140625 C 33.78125 -30.347656 33.796875 -27.570312 33.828125 -24.8125 C 33.859375 -22.050781 33.875 -19.273438 33.875 -16.484375 C 33.9375 -14.898438 34 -13.300781 34.0625 -11.6875 C 34.125 -10.082031 34.179688 -8.492188 34.234375 -6.921875 C 34.179688 -5.828125 34.015625 -4.78125 33.734375 -3.78125 C 33.460938 -2.78125 32.898438 -1.945312 32.046875 -1.28125 L 32.046875 -1.453125 C 32.109375 -2.117188 32.140625 -2.769531 32.140625 -3.40625 C 32.140625 -4.050781 32.171875 -4.675781 32.234375 -5.28125 L 32.234375 -8.734375 C 32.054688 -7.953125 31.90625 -6.984375 31.78125 -5.828125 C 31.65625 -4.671875 31.441406 -3.640625 31.140625 -2.734375 C 30.835938 -1.765625 30.203125 -1.035156 29.234375 -0.546875 C 28.265625 -0.0546875 27.289062 0.0625 26.3125 -0.1875 C 24.4375 -0.789062 23.191406 -1.988281 22.578125 -3.78125 C 21.972656 -5.570312 21.609375 -7.347656 21.484375 -9.109375 C 21.367188 -11.410156 21.328125 -13.742188 21.359375 -16.109375 C 21.390625 -18.484375 21.429688 -20.820312 21.484375 -23.125 C 21.609375 -25.4375 21.742188 -27.773438 21.890625 -30.140625 C 22.046875 -32.503906 22.15625 -34.875 22.21875 -37.25 L 22.40625 -41.25 L 22.40625 -44.171875 C 21.789062 -44.171875 21.195312 -44.171875 20.625 -44.171875 C 20.050781 -44.171875 19.457031 -44.171875 18.84375 -44.171875 C 16.351562 -44.171875 13.925781 -44.257812 11.5625 -44.4375 C 10.59375 -44.5625 9.632812 -44.726562 8.6875 -44.9375 C 7.75 -45.15625 6.859375 -45.503906 6.015625 -45.984375 C 5.398438 -46.410156 4.832031 -46.925781 4.3125 -47.53125 C 3.800781 -48.132812 3.394531 -48.800781 3.09375 -49.53125 C 2.1875 -50.019531 1.503906 -50.765625 1.046875 -51.765625 C 0.585938 -52.765625 0.484375 -53.8125 0.734375 -54.90625 C 1.035156 -55.820312 1.59375 -56.644531 2.40625 -57.375 C 3.226562 -58.101562 4.125 -58.40625 5.09375 -58.28125 C 7.582031 -58.039062 10.070312 -57.84375 12.5625 -57.6875 C 15.050781 -57.53125 17.539062 -57.453125 20.03125 -57.453125 C 20.03125 -57.515625 20.046875 -57.5625 20.078125 -57.59375 C 20.109375 -57.625 20.125 -57.671875 20.125 -57.734375 C 15.207031 -58.035156 10.289062 -58.582031 5.375 -59.375 C 5.25 -59.375 5.203125 -59.460938 5.234375 -59.640625 C 5.265625 -59.828125 5.34375 -59.890625 5.46875 -59.828125 C 11.84375 -59.460938 18.21875 -59.335938 24.59375 -59.453125 C 30.96875 -59.578125 37.3125 -59.914062 43.625 -60.46875 C 44.101562 -60.582031 44.582031 -60.65625 45.0625 -60.6875 C 45.550781 -60.71875 46.007812 -60.765625 46.4375 -60.828125 C 46.6875 -60.828125 46.945312 -60.84375 47.21875 -60.875 C 47.488281 -60.90625 47.742188 -60.890625 47.984375 -60.828125 C 48.648438 -60.953125 49.332031 -61.039062 50.03125 -61.09375 C 50.738281 -61.15625 51.425781 -61.21875 52.09375 -61.28125 C 52.507812 -61.34375 52.765625 -61.113281 52.859375 -60.59375 C 52.953125 -60.082031 52.753906 -59.765625 52.265625 -59.640625 C 51.960938 -59.640625 51.75 -59.613281 51.625 -59.5625 C 51.875 -59.4375 52.054688 -59.3125 52.171875 -59.1875 C 53.210938 -58.582031 53.71875 -57.625 53.6875 -56.3125 C 53.65625 -55.007812 53.09375 -54.117188 52 -53.640625 Z M 11.5625 -46.625 C 13.144531 -46.5 14.753906 -46.5 16.390625 -46.625 C 14.566406 -46.800781 12.742188 -47.054688 10.921875 -47.390625 C 9.109375 -47.734375 7.320312 -48.175781 5.5625 -48.71875 C 6.28125 -48.050781 7.1875 -47.550781 8.28125 -47.21875 C 9.375 -46.882812 10.46875 -46.6875 11.5625 -46.625 Z M 11.5625 -46.625 "/></g></g></g><g fill="#000000" fill-opacity="1"><g transform="translate(238.585202, 138.51802)"><g><path d="M 33.328125 -2.734375 C 32.960938 -2.847656 32.550781 -3.484375 32.09375 -4.640625 C 31.644531 -5.796875 31.160156 -7.222656 30.640625 -8.921875 C 30.128906 -10.617188 29.644531 -12.378906 29.1875 -14.203125 C 28.726562 -16.023438 28.316406 -17.664062 27.953125 -19.125 C 27.585938 -20.582031 27.347656 -21.644531 27.234375 -22.3125 L 20.125 -22.21875 C 19.457031 -19.488281 18.878906 -16.769531 18.390625 -14.0625 C 17.910156 -11.363281 17.546875 -8.617188 17.296875 -5.828125 C 17.296875 -5.285156 17.035156 -5.015625 16.515625 -5.015625 C 16.003906 -5.015625 15.78125 -5.285156 15.84375 -5.828125 C 16.082031 -8.554688 16.429688 -11.300781 16.890625 -14.0625 C 17.347656 -16.832031 18 -19.550781 18.84375 -22.21875 L 18.03125 -22.21875 C 17.726562 -21.125 17.425781 -19.800781 17.125 -18.25 C 16.820312 -16.707031 16.53125 -15.191406 16.25 -13.703125 C 15.976562 -12.210938 15.75 -10.96875 15.5625 -9.96875 C 15.382812 -8.96875 15.296875 -8.46875 15.296875 -8.46875 L 14.75 -4.375 C 14.570312 -2.3125 13.875 -0.828125 12.65625 0.078125 C 11.445312 0.992188 10.113281 1.359375 8.65625 1.171875 C 7.195312 0.992188 5.960938 0.300781 4.953125 -0.90625 C 3.953125 -2.125 3.609375 -3.796875 3.921875 -5.921875 C 4.285156 -8.585938 4.707031 -11.253906 5.1875 -13.921875 C 5.675781 -16.597656 6.253906 -19.242188 6.921875 -21.859375 C 6.492188 -21.796875 6.066406 -21.75 5.640625 -21.71875 C 5.222656 -21.6875 4.832031 -21.671875 4.46875 -21.671875 C 4.582031 -21.972656 4.609375 -22.25 4.546875 -22.5 C 3.097656 -22.851562 2.035156 -23.640625 1.359375 -24.859375 C 0.691406 -26.078125 0.507812 -27.425781 0.8125 -28.90625 C 1.125 -30.394531 1.976562 -31.757812 3.375 -33 C 4.769531 -34.25 6.832031 -35.085938 9.5625 -35.515625 C 10.226562 -38.546875 10.957031 -41.535156 11.75 -44.484375 C 12.539062 -47.429688 13.507812 -50.300781 14.65625 -53.09375 C 15.207031 -54.300781 15.816406 -55.617188 16.484375 -57.046875 C 17.148438 -58.472656 17.984375 -59.71875 18.984375 -60.78125 C 19.984375 -61.84375 21.242188 -62.375 22.765625 -62.375 C 23.554688 -62.4375 24.34375 -62.222656 25.125 -61.734375 C 25.914062 -61.253906 26.492188 -60.648438 26.859375 -59.921875 C 28.191406 -59.859375 29.296875 -59.382812 30.171875 -58.5 C 31.054688 -57.625 31.5625 -56.457031 31.6875 -55 C 31.8125 -53.175781 31.960938 -51.335938 32.140625 -49.484375 C 32.328125 -47.640625 32.507812 -45.835938 32.6875 -44.078125 C 32.75 -44.015625 32.8125 -43.984375 32.875 -43.984375 C 32.9375 -45.554688 33.007812 -47.117188 33.09375 -48.671875 C 33.1875 -50.222656 33.328125 -51.753906 33.515625 -53.265625 C 33.515625 -53.515625 33.554688 -52.96875 33.640625 -51.625 C 33.734375 -50.289062 33.84375 -48.578125 33.96875 -46.484375 C 34.09375 -44.390625 34.210938 -42.296875 34.328125 -40.203125 C 34.453125 -38.109375 34.601562 -36.363281 34.78125 -34.96875 C 36.539062 -34.78125 37.90625 -34.1875 38.875 -33.1875 C 39.851562 -32.1875 40.460938 -31.035156 40.703125 -29.734375 C 40.941406 -28.429688 40.816406 -27.140625 40.328125 -25.859375 C 39.847656 -24.585938 38.972656 -23.554688 37.703125 -22.765625 C 38.304688 -20.097656 38.941406 -17.078125 39.609375 -13.703125 C 40.273438 -10.335938 40.789062 -7.285156 41.15625 -4.546875 C 41.40625 -2.484375 41.238281 -0.921875 40.65625 0.140625 C 40.082031 1.203125 39.320312 1.789062 38.375 1.90625 C 37.4375 2.03125 36.5 1.695312 35.5625 0.90625 C 34.625 0.125 33.878906 -1.085938 33.328125 -2.734375 Z M 19.859375 -34.0625 C 20.523438 -34.175781 21.390625 -34.25 22.453125 -34.28125 C 23.515625 -34.3125 24.347656 -34.359375 24.953125 -34.421875 C 24.828125 -35.210938 24.6875 -36.332031 24.53125 -37.78125 C 24.382812 -39.238281 24.203125 -40.800781 23.984375 -42.46875 C 23.773438 -44.144531 23.519531 -45.679688 23.21875 -47.078125 C 22.488281 -44.523438 21.847656 -42.25 21.296875 -40.25 C 20.753906 -38.25 20.273438 -36.1875 19.859375 -34.0625 Z M 19.859375 -34.0625 "/></g></g></g><g fill="#000000" fill-opacity="1"><g transform="translate(281.29377, 138.51802)"><g><path d="M 43.625 -33.0625 C 43.675781 -32.269531 43.78125 -31.523438 43.9375 -30.828125 C 44.09375 -30.128906 44.226562 -29.382812 44.34375 -28.59375 C 44.53125 -27.988281 44.46875 -27.394531 44.15625 -26.8125 C 43.851562 -26.238281 43.367188 -25.859375 42.703125 -25.671875 C 41.242188 -25.316406 40.0625 -25.625 39.15625 -26.59375 C 38.25 -27.5625 37.566406 -28.832031 37.109375 -30.40625 C 36.648438 -31.988281 36.332031 -33.476562 36.15625 -34.875 C 36.09375 -34.875 36.0625 -34.890625 36.0625 -34.921875 C 36.0625 -34.953125 36.03125 -34.96875 35.96875 -34.96875 C 34.632812 -36.90625 33.007812 -38.601562 31.09375 -40.0625 C 29.1875 -41.519531 27.140625 -42.734375 24.953125 -43.703125 C 22.640625 -44.742188 20.269531 -45.535156 17.84375 -46.078125 L 21.578125 -42.53125 C 23.035156 -41.132812 24.492188 -39.707031 25.953125 -38.25 C 27.410156 -36.789062 28.804688 -35.300781 30.140625 -33.78125 C 31.472656 -32.382812 32.804688 -30.972656 34.140625 -29.546875 C 35.484375 -28.117188 36.726562 -26.648438 37.875 -25.140625 C 38.726562 -24.097656 39.457031 -23 40.0625 -21.84375 C 40.675781 -20.695312 41.101562 -19.515625 41.34375 -18.296875 C 41.832031 -17.148438 42.195312 -15.984375 42.4375 -14.796875 C 42.675781 -13.609375 42.707031 -12.410156 42.53125 -11.203125 C 42.46875 -9.253906 41.828125 -7.503906 40.609375 -5.953125 C 39.398438 -4.410156 37.882812 -3.179688 36.0625 -2.265625 C 34.238281 -1.359375 32.359375 -0.847656 30.421875 -0.734375 L 30.140625 -0.734375 C 28.617188 -0.484375 27.023438 -0.429688 25.359375 -0.578125 C 23.691406 -0.734375 22.128906 -1.023438 20.671875 -1.453125 C 18.671875 -1.878906 16.789062 -2.671875 15.03125 -3.828125 C 14.84375 -3.035156 14.582031 -2.289062 14.25 -1.59375 C 13.914062 -0.894531 13.445312 -0.300781 12.84375 0.1875 C 12.414062 0.601562 11.882812 0.8125 11.25 0.8125 C 10.613281 0.8125 10.050781 0.601562 9.5625 0.1875 C 9.070312 -0.300781 8.613281 -0.925781 8.1875 -1.6875 C 7.769531 -2.445312 7.5 -3.21875 7.375 -4 C 7.132812 -4.3125 6.9375 -4.675781 6.78125 -5.09375 C 6.632812 -5.519531 6.5 -5.945312 6.375 -6.375 C 6.132812 -8.925781 5.753906 -11.472656 5.234375 -14.015625 C 4.722656 -16.566406 4.128906 -19.085938 3.453125 -21.578125 C 3.085938 -22.972656 2.800781 -24.398438 2.59375 -25.859375 C 2.382812 -27.316406 2.1875 -28.773438 2 -30.234375 C 1.820312 -31.503906 1.65625 -32.820312 1.5 -34.1875 C 1.351562 -35.5625 1.398438 -36.914062 1.640625 -38.25 C 1.816406 -39.09375 2.222656 -39.878906 2.859375 -40.609375 C 3.503906 -41.335938 4.28125 -41.765625 5.1875 -41.890625 C 6.28125 -42.015625 7.25 -41.863281 8.09375 -41.4375 C 8.945312 -41.007812 9.554688 -40.25 9.921875 -39.15625 C 10.898438 -36.175781 11.597656 -33.109375 12.015625 -29.953125 C 12.441406 -26.796875 13.171875 -23.703125 14.203125 -20.671875 C 14.628906 -19.578125 15.128906 -18.484375 15.703125 -17.390625 C 16.285156 -16.296875 16.96875 -15.328125 17.75 -14.484375 C 18.238281 -14.054688 18.722656 -13.597656 19.203125 -13.109375 C 19.691406 -12.628906 20.210938 -12.175781 20.765625 -11.75 C 21.304688 -11.5625 21.847656 -11.421875 22.390625 -11.328125 C 22.941406 -11.242188 23.492188 -11.171875 24.046875 -11.109375 C 25.921875 -10.929688 27.863281 -10.929688 29.875 -11.109375 C 30.476562 -11.171875 31.160156 -11.273438 31.921875 -11.421875 C 32.679688 -11.578125 33.242188 -11.925781 33.609375 -12.46875 C 33.785156 -12.65625 33.875 -12.929688 33.875 -13.296875 C 34.113281 -13.785156 34.097656 -14.390625 33.828125 -15.109375 C 33.554688 -15.835938 33.328125 -16.382812 33.140625 -16.75 C 33.085938 -17 33 -17.242188 32.875 -17.484375 C 32.75 -17.722656 32.628906 -17.96875 32.515625 -18.21875 C 32.085938 -18.757812 31.660156 -19.300781 31.234375 -19.84375 C 30.804688 -20.394531 30.351562 -20.941406 29.875 -21.484375 C 28.476562 -23.191406 27.050781 -24.863281 25.59375 -26.5 C 24.132812 -28.132812 22.613281 -29.742188 21.03125 -31.328125 C 20.425781 -31.992188 19.816406 -32.660156 19.203125 -33.328125 C 18.597656 -33.992188 17.960938 -34.628906 17.296875 -35.234375 L 15.9375 -36.328125 C 13.8125 -38.085938 11.773438 -39.925781 9.828125 -41.84375 C 7.890625 -43.757812 6.070312 -45.804688 4.375 -47.984375 C 3.582031 -49.140625 2.867188 -50.367188 2.234375 -51.671875 C 1.597656 -52.984375 1.460938 -54.394531 1.828125 -55.90625 C 2.191406 -57.425781 2.976562 -58.609375 4.1875 -59.453125 C 5.40625 -60.304688 6.769531 -60.675781 8.28125 -60.5625 C 9.3125 -60.5 10.3125 -60.328125 11.28125 -60.046875 C 12.257812 -59.773438 13.234375 -59.488281 14.203125 -59.1875 C 14.628906 -59.3125 15.085938 -59.28125 15.578125 -59.09375 C 18.066406 -58.363281 20.429688 -57.484375 22.671875 -56.453125 C 24.921875 -55.421875 27.109375 -54.207031 29.234375 -52.8125 C 30.265625 -52.207031 31.265625 -51.554688 32.234375 -50.859375 C 33.203125 -50.160156 34.144531 -49.382812 35.0625 -48.53125 L 35.515625 -48.078125 C 35.515625 -48.867188 35.515625 -49.644531 35.515625 -50.40625 C 35.515625 -51.164062 35.484375 -51.9375 35.421875 -52.71875 C 35.421875 -53.9375 35.875 -54.984375 36.78125 -55.859375 C 37.695312 -56.742188 38.734375 -57.1875 39.890625 -57.1875 C 41.222656 -57.1875 42.269531 -56.742188 43.03125 -55.859375 C 43.789062 -54.984375 44.226562 -53.9375 44.34375 -52.71875 C 44.644531 -50.59375 44.644531 -48.421875 44.34375 -46.203125 C 44.039062 -43.992188 43.800781 -41.828125 43.625 -39.703125 C 43.5625 -37.453125 43.5625 -35.238281 43.625 -33.0625 Z M 43.625 -33.0625 "/></g></g></g><g fill="#000000" fill-opacity="1"><g transform="translate(329.466124, 138.51802)"><g><path d="M 46.4375 -3.546875 C 46.375 -3.484375 46.328125 -3.515625 46.296875 -3.640625 C 46.273438 -3.765625 46.289062 -3.859375 46.34375 -3.921875 C 47.070312 -4.222656 47.5 -4.765625 47.625 -5.546875 C 47.75 -6.335938 47.6875 -7.21875 47.4375 -8.1875 C 47.195312 -9.164062 46.910156 -10.09375 46.578125 -10.96875 C 46.242188 -11.851562 45.984375 -12.507812 45.796875 -12.9375 C 44.460938 -16.632812 42.796875 -20.109375 40.796875 -23.359375 C 38.796875 -26.609375 36.457031 -29.6875 33.78125 -32.59375 C 34.445312 -31.75 35.3125 -30.488281 36.375 -28.8125 C 37.4375 -27.144531 38.546875 -25.296875 39.703125 -23.265625 C 40.859375 -21.234375 41.953125 -19.171875 42.984375 -17.078125 C 44.015625 -14.984375 44.878906 -13.039062 45.578125 -11.25 C 46.273438 -9.457031 46.65625 -8.046875 46.71875 -7.015625 C 46.832031 -5.796875 46.492188 -4.6875 45.703125 -3.6875 C 44.921875 -2.6875 43.832031 -2.1875 42.4375 -2.1875 C 40.488281 -2.1875 39.125 -3.035156 38.34375 -4.734375 C 37.914062 -5.523438 37.703125 -6.375 37.703125 -7.28125 C 36.003906 -10.6875 34 -13.9375 31.6875 -17.03125 C 29.382812 -20.125 26.988281 -23.035156 24.5 -25.765625 C 23.40625 -26.984375 22.296875 -28.179688 21.171875 -29.359375 C 20.046875 -30.546875 18.816406 -31.625 17.484375 -32.59375 L 16.03125 -32.046875 C 15.601562 -31.867188 15.207031 -31.703125 14.84375 -31.546875 C 14.476562 -31.398438 14.144531 -31.265625 13.84375 -31.140625 C 14.320312 -26.046875 14.867188 -20.976562 15.484375 -15.9375 C 15.597656 -14.96875 15.757812 -13.976562 15.96875 -12.96875 C 16.1875 -11.96875 16.390625 -10.953125 16.578125 -9.921875 C 16.816406 -9.078125 17.101562 -8.148438 17.4375 -7.140625 C 17.769531 -6.140625 18.03125 -5.125 18.21875 -4.09375 C 18.332031 -3.726562 18.34375 -3.347656 18.25 -2.953125 C 18.164062 -2.566406 17.972656 -2.21875 17.671875 -1.90625 C 15.359375 0.03125 12.867188 0.515625 10.203125 -0.453125 C 9.171875 -0.328125 8.164062 -0.550781 7.1875 -1.125 C 6.21875 -1.707031 5.492188 -2.484375 5.015625 -3.453125 C 4.460938 -4.734375 4.125 -6.054688 4 -7.421875 C 3.882812 -8.785156 3.765625 -10.132812 3.640625 -11.46875 C 3.273438 -14.570312 2.925781 -17.671875 2.59375 -20.765625 C 2.257812 -23.859375 1.972656 -26.953125 1.734375 -30.046875 C 1.484375 -33.140625 1.28125 -36.234375 1.125 -39.328125 C 0.976562 -42.429688 0.847656 -45.5625 0.734375 -48.71875 C 0.734375 -49.570312 0.71875 -50.40625 0.6875 -51.21875 C 0.65625 -52.039062 0.640625 -52.847656 0.640625 -53.640625 C 0.578125 -54.484375 0.648438 -55.34375 0.859375 -56.21875 C 1.078125 -57.101562 1.671875 -57.671875 2.640625 -57.921875 C 2.703125 -58.097656 2.773438 -58.257812 2.859375 -58.40625 C 2.953125 -58.5625 3.03125 -58.734375 3.09375 -58.921875 C 3.695312 -60.015625 4.53125 -60.695312 5.59375 -60.96875 C 6.65625 -61.238281 7.703125 -61.160156 8.734375 -60.734375 C 9.773438 -60.304688 10.566406 -59.625 11.109375 -58.6875 C 11.648438 -57.75 11.710938 -56.671875 11.296875 -55.453125 C 11.046875 -54.546875 10.90625 -53.5625 10.875 -52.5 C 10.851562 -51.4375 10.8125 -50.390625 10.75 -49.359375 L 10.46875 -41.15625 C 10.769531 -41.457031 11.015625 -41.640625 11.203125 -41.703125 C 11.378906 -43.648438 11.585938 -45.59375 11.828125 -47.53125 C 12.078125 -49.476562 12.351562 -51.390625 12.65625 -53.265625 C 12.65625 -53.328125 12.671875 -53.34375 12.703125 -53.3125 C 12.734375 -53.28125 12.75 -53.265625 12.75 -53.265625 L 12.75 -52.640625 C 12.8125 -50.929688 12.867188 -49.257812 12.921875 -47.625 C 12.984375 -45.988281 13.046875 -44.320312 13.109375 -42.625 C 16.878906 -44.257812 20.875 -46.109375 25.09375 -48.171875 C 29.3125 -50.234375 33.179688 -52.296875 36.703125 -54.359375 C 37.429688 -54.785156 38.265625 -55.285156 39.203125 -55.859375 C 40.140625 -56.441406 41.066406 -56.582031 41.984375 -56.28125 C 42.710938 -56.09375 43.257812 -55.695312 43.625 -55.09375 C 43.988281 -54.488281 44.171875 -53.820312 44.171875 -53.09375 L 44.4375 -53.359375 C 44.925781 -53.722656 45.394531 -53.722656 45.84375 -53.359375 C 46.300781 -52.992188 46.378906 -52.539062 46.078125 -52 C 44.492188 -49.019531 42.320312 -46.53125 39.5625 -44.53125 C 36.800781 -42.53125 33.960938 -40.707031 31.046875 -39.0625 L 28.6875 -37.796875 C 28.925781 -37.609375 29.132812 -37.421875 29.3125 -37.234375 C 29.5 -37.054688 29.710938 -36.878906 29.953125 -36.703125 C 29.898438 -37.003906 30.054688 -37.273438 30.421875 -37.515625 C 30.785156 -37.753906 31.085938 -37.722656 31.328125 -37.421875 C 34.117188 -34.816406 36.609375 -31.976562 38.796875 -28.90625 C 40.984375 -25.84375 42.832031 -22.582031 44.34375 -19.125 C 45.132812 -17.425781 45.832031 -15.710938 46.4375 -13.984375 C 47.050781 -12.253906 47.566406 -10.503906 47.984375 -8.734375 C 48.171875 -7.828125 48.234375 -6.8125 48.171875 -5.6875 C 48.109375 -4.5625 47.53125 -3.847656 46.4375 -3.546875 Z M 46.4375 -3.546875 "/></g></g></g></svg>